<?xml version="1.0" encoding="UTF-8"?>
<!DOCTYPE svg PUBLIC "-//W3C//DTD SVG 1.1//EN" "http://www.w3.org/Graphics/SVG/1.1/DTD/svg11.dtd">
<svg xmlns="http://www.w3.org/2000/svg" version="1.1" width="520px" height="523px" style="shape-rendering:geometricPrecision; text-rendering:geometricPrecision; image-rendering:optimizeQuality; fill-rule:evenodd; clip-rule:evenodd" xmlns:xlink="http://www.w3.org/1999/xlink">
<g><path style="opacity:0.998" fill="#175e93" d="M 236.5,-0.5 C 251.833,-0.5 267.167,-0.5 282.5,-0.5C 381.689,11.8794 453.189,62.8794 497,152.5C 508.748,179.831 516.248,208.164 519.5,237.5C 519.5,253.167 519.5,268.833 519.5,284.5C 510.429,363.833 474.095,427.333 410.5,475C 371.915,501.806 329.248,517.64 282.5,522.5C 267.167,522.5 251.833,522.5 236.5,522.5C 137.311,510.121 65.8108,459.121 22,369.5C 10.2522,342.169 2.75219,313.836 -0.5,284.5C -0.5,268.833 -0.5,253.167 -0.5,237.5C 8.57146,158.167 44.9048,94.667 108.5,47C 147.085,20.1935 189.752,4.36019 236.5,-0.5 Z"/></g>
<g><path style="opacity:1" fill="#2ab9be" d="M 128.5,92.5 C 167.007,90.3793 198.507,104.046 223,133.5C 236.464,152.083 240.631,171.916 235.5,193C 229.18,209.987 217.513,221.654 200.5,228C 155.212,238.566 118.045,225.4 89,188.5C 76.8111,170.813 73.1444,151.813 78,131.5C 79.2364,127.356 81.2364,123.69 84,120.5C 100.157,129.984 116.323,139.484 132.5,149C 135.037,169.834 147.037,179.501 168.5,178C 179.321,174.51 183.487,167.343 181,156.5C 175.775,144.625 166.609,138.292 153.5,137.5C 148.685,138.044 144.018,138.877 139.5,140C 123.75,130.374 107.916,120.874 92,111.5C 91.8374,109.613 92.6707,108.113 94.5,107C 104.695,99.3293 116.029,94.4959 128.5,92.5 Z"/></g>
<g><path style="opacity:1" fill="#2ab9be" d="M 305.5,105.5 C 329.015,105.752 350.015,113.918 368.5,130C 359.942,137.526 351.108,144.693 342,151.5C 336.301,147.945 330.134,146.779 323.5,148C 318.078,149.924 315.078,153.757 314.5,159.5C 317.076,173.738 325.743,182.071 340.5,184.5C 349.373,184.626 354.039,180.292 354.5,171.5C 354.189,167.602 353.356,163.935 352,160.5C 359.927,153.785 367.76,146.951 375.5,140C 376.5,139.333 377.5,139.333 378.5,140C 391.254,154.183 398.254,170.849 399.5,190C 399.689,204.62 394.023,216.286 382.5,225C 364.67,233.875 346.336,234.875 327.5,228C 293.948,214.689 273.114,190.523 265,155.5C 263.121,126.217 276.621,109.55 305.5,105.5 Z"/></g>
<g><path style="opacity:1" fill="#2ab9be" d="M 294.5,319.5 C 294.768,321.099 294.434,322.432 293.5,323.5C 280.091,289.596 255.757,267.762 220.5,258C 216.56,256.985 212.56,256.485 208.5,256.5C 208.833,255.833 209.167,255.167 209.5,254.5C 244.939,248.553 262.439,227.553 262,191.5C 277.855,227.015 305.022,247.849 343.5,254C 315.837,257.996 299.67,273.829 295,301.5C 294.501,307.491 294.334,313.491 294.5,319.5 Z"/></g>
<g><path style="opacity:1" fill="#2484a7" d="M 209.5,254.5 C 209.167,255.167 208.833,255.833 208.5,256.5C 205.813,256.664 203.146,256.497 200.5,256C 203.513,255.498 206.513,254.998 209.5,254.5 Z"/></g>
<g><path style="opacity:1" fill="#2ab9be" d="M 360.5,265.5 C 379.979,265.266 397.979,271.099 414.5,283C 443.708,306.082 458.708,336.082 459.5,373C 458.793,377.59 457.627,382.09 456,386.5C 441.309,374.975 426.476,363.642 411.5,352.5C 409.936,334.448 400.436,323.448 383,319.5C 370.394,321.338 365.06,328.671 367,341.5C 370.218,355.887 379.051,364.22 393.5,366.5C 397.883,366.65 401.717,365.317 405,362.5C 420.513,373.924 435.846,385.591 451,397.5C 446.707,408.132 439.207,415.965 428.5,421C 406.637,428.449 385.637,426.449 365.5,415C 328.521,391.858 310.355,358.692 311,315.5C 315.093,286.242 331.593,269.575 360.5,265.5 Z"/></g>
<g><path style="opacity:1" fill="#2ab9be" d="M 174.5,269.5 C 212.993,268.664 243.493,283.997 266,315.5C 288.785,351.016 289.118,386.016 267,420.5C 245.347,446.166 217.847,455.999 184.5,450C 170.18,446.835 157.18,441.002 145.5,432.5C 158.81,415.356 172.31,398.356 186,381.5C 198.257,386.81 208.923,383.81 218,372.5C 224.616,352.558 217.782,338.724 197.5,331C 179.644,328.581 169.644,336.248 167.5,354C 167.855,360.259 169.355,366.092 172,371.5C 158.49,387.873 144.99,404.206 131.5,420.5C 102.936,391.537 94.7697,357.537 107,318.5C 120.428,289.56 142.928,273.227 174.5,269.5 Z"/></g>
<g><path style="opacity:1" fill="#258baa" d="M 294.5,319.5 C 295.564,323.008 296.064,326.674 296,330.5C 295.009,328.192 294.176,325.859 293.5,323.5C 294.434,322.432 294.768,321.099 294.5,319.5 Z"/></g>
</svg>
