<svg version="1.1" id="Layer_1" xmlns="http://www.w3.org/2000/svg" xmlns:xlink="http://www.w3.org/1999/xlink" x="0px" y="0px"
	 width="100%" viewBox="0 0 520 523" enable-background="new 0 0 520 523" xml:space="preserve">
<path fill="#175E93" opacity="1.000000" stroke="none" 
	d="
M229.000000,0.999995 
	C250.020889,1.000000 271.041779,1.000000 292.471863,1.416251 
	C293.556152,2.208821 294.194946,2.811727 294.911896,2.926404 
	C302.056549,4.069214 309.322021,4.666713 316.348877,6.298715 
	C343.593292,12.626308 369.478241,22.419508 393.600220,36.814079 
	C420.404053,52.809017 443.809418,72.769394 463.281982,97.043503 
	C479.938263,117.806900 493.567139,140.537048 503.192047,165.511139 
	C510.909180,185.535034 516.576111,206.066956 519.085938,227.427704 
	C519.193970,228.347412 520.338379,229.145340 521.000000,230.000000 
	C521.000000,251.354233 521.000000,272.708466 520.583618,294.471863 
	C519.411865,299.163269 518.724670,303.458771 517.890442,307.725525 
	C512.138306,337.143646 502.886139,365.274323 487.923218,391.437744 
	C471.517914,420.123230 450.911041,445.230865 425.294403,466.105804 
	C405.262299,482.429901 383.292542,495.655548 359.275818,505.262756 
	C338.755554,513.471313 317.659058,519.683411 295.571869,522.087524 
	C294.656006,522.187195 293.854675,523.338562 293.000000,524.000000 
	C271.979095,524.000000 250.958206,524.000000 229.528290,523.583740 
	C228.444031,522.791199 227.805038,522.188416 227.087967,522.073792 
	C219.943253,520.931030 212.677658,520.333862 205.650772,518.701721 
	C178.406021,512.373840 152.520782,502.580353 128.398499,488.185242 
	C101.594292,472.189728 78.188911,452.228516 58.715935,427.954132 
	C42.060429,407.191925 28.432367,384.463043 18.808334,359.489929 
	C11.091398,339.465515 5.424196,318.933411 2.914071,297.572388 
	C2.805995,296.652649 1.661626,295.854675 1.000000,295.000000 
	C1.000000,273.645782 1.000000,252.291550 1.416389,230.528122 
	C2.524917,227.000351 3.395803,223.909348 3.881499,220.758942 
	C8.646166,189.853424 18.679420,160.802094 34.102638,133.579422 
	C50.392910,104.826378 71.088585,79.768082 96.707016,58.893154 
	C116.739120,42.570183 138.707794,29.343620 162.724487,19.737314 
	C183.244797,11.529509 204.340973,5.317014 226.427902,2.912690 
	C227.343826,2.812986 228.145233,1.661479 229.000000,0.999995 
M274.679199,329.940247 
	C268.186981,316.389343 259.389252,304.535980 247.769669,295.016052 
	C224.451141,275.911133 197.890274,267.166351 167.812119,272.349548 
	C123.702217,279.950806 97.641991,321.381500 102.858841,361.944489 
	C105.485062,382.364441 113.635536,400.208099 126.622299,415.973602 
	C128.459656,418.204071 130.756241,420.056274 133.162613,422.397125 
	C146.571655,405.982483 159.561600,390.187378 172.332016,374.216766 
	C173.216660,373.110413 173.030411,370.456451 172.379120,368.934204 
	C169.710495,362.696930 167.659500,356.425446 169.804703,349.647614 
	C176.123825,329.682281 197.112289,327.675598 211.011536,338.688690 
	C223.013657,348.198639 225.799194,364.523376 217.915161,375.723145 
	C212.303528,383.694824 202.350540,386.967682 191.107025,384.240448 
	C188.194870,383.534088 186.164841,383.721436 184.184006,386.249359 
	C172.582703,401.055054 160.885925,415.786499 149.136261,430.474915 
	C146.780411,433.419983 147.228638,435.180115 150.447113,437.114899 
	C174.470947,451.556976 199.719925,458.448059 227.540482,450.026215 
	C245.891052,444.471130 260.904755,434.162415 271.198730,417.849823 
	C289.032257,389.589478 288.011169,360.320068 274.679199,329.940247 
M433.627716,300.893616 
	C430.350555,297.573090 427.274414,294.021210 423.762817,290.970551 
	C404.671906,274.385437 383.213379,264.436035 357.168884,268.053986 
	C345.024200,269.741028 334.648956,274.985077 326.597992,284.348297 
	C313.806000,299.225372 310.023071,316.756744 312.565918,335.724243 
	C317.094208,369.501740 334.599182,395.361145 362.776520,413.791107 
	C378.491608,424.069855 395.828766,430.264465 415.194275,426.936462 
	C430.342987,424.333099 442.606537,417.081421 451.137634,404.000336 
	C453.083282,401.016968 453.141388,398.794220 449.959259,396.432556 
	C436.588531,386.509430 423.343140,376.416809 410.096008,366.328247 
	C408.045288,364.766479 406.378265,364.286224 403.845337,365.727020 
	C398.430817,368.806946 392.593384,368.771149 387.011597,366.146759 
	C376.259308,361.091248 369.929718,352.401337 368.163818,340.794250 
	C366.533295,330.077271 374.601837,320.909515 384.523346,321.414734 
	C397.293335,322.065063 409.488190,333.820526 411.111450,346.528931 
	C411.500305,349.573334 412.551941,353.469727 414.716766,355.196991 
	C427.727325,365.577881 441.146118,375.447479 454.448364,385.461578 
	C455.342682,386.134827 456.402283,386.588501 457.402008,387.153900 
	C466.342163,368.242065 457.929993,327.803650 433.627716,300.893616 
M180.777039,172.063736 
	C179.528900,173.384064 178.452423,174.943039 177.003967,175.984879 
	C169.301056,181.525360 160.946274,181.135864 152.789902,177.567154 
	C143.649307,173.567825 136.756912,167.276901 136.002777,156.471039 
	C135.795303,153.497940 135.418976,151.187439 132.439148,149.451065 
	C118.062912,141.074051 103.751236,132.579163 89.589783,123.845375 
	C85.923820,121.584473 84.136513,122.072250 82.322403,125.850685 
	C75.175285,140.736664 75.513657,155.885925 80.894516,171.032089 
	C88.424110,192.226562 103.057228,207.653778 122.097038,218.871811 
	C145.455292,232.634216 170.328125,238.451721 197.248489,231.109833 
	C229.146515,222.410431 245.721542,194.049911 237.464401,162.189972 
	C233.734818,147.799469 226.443604,135.373260 215.769989,125.160400 
	C186.406403,97.064430 152.323669,86.610237 112.703323,98.969406 
	C105.142799,101.327835 98.310463,105.532196 92.495689,112.636200 
	C93.573112,113.252434 94.304199,113.655777 95.021172,114.082825 
	C110.034317,123.025208 125.015282,132.022751 140.111649,140.822296 
	C141.420700,141.585342 143.612228,141.482895 145.185013,141.040359 
	C155.828079,138.045746 165.573074,139.622009 174.317734,146.451126 
	C182.314407,152.696106 185.017609,162.794968 180.777039,172.063736 
M301.543030,214.009277 
	C304.540283,216.108887 307.420593,218.404266 310.554108,220.275757 
	C328.209320,230.820282 346.637238,237.804062 367.802277,233.217484 
	C385.342834,229.416367 398.180389,216.855209 400.532013,199.229721 
	C403.468842,177.217880 394.593109,158.939484 380.899933,142.509109 
	C378.914856,140.127289 377.176300,141.466766 375.392944,142.984665 
	C369.057404,148.377075 362.762756,153.824585 356.263916,159.014893 
	C353.398773,161.303146 353.218353,163.416946 354.557892,166.713455 
	C359.205505,178.151199 351.750916,187.551376 339.621735,185.856934 
	C329.735596,184.475830 319.437164,175.123138 317.152191,165.450790 
	C314.891693,155.882095 321.207611,148.302032 331.042542,149.177460 
	C334.294922,149.466980 337.425995,150.945450 340.665894,151.626266 
	C342.143738,151.936813 344.234985,152.262360 345.223633,151.504974 
	C353.505188,145.160904 361.595093,138.566605 370.921173,131.104828 
	C369.158539,130.084427 368.069733,129.603775 367.151581,128.900375 
	C351.244751,116.714256 334.020935,108.357803 313.376526,107.718491 
	C295.724335,107.171852 281.239380,112.289658 271.699921,127.685341 
	C264.708313,138.969070 264.634064,151.417542 267.608917,163.935089 
	C272.522400,184.610275 284.993256,200.287231 301.543030,214.009277 
M251.689651,234.173813 
	C241.148682,247.409531 226.761032,253.795639 210.458847,257.004425 
	C250.993668,264.022095 278.961609,286.613678 295.576385,324.004456 
	C294.477905,289.324890 305.878387,263.662140 342.410767,255.564255 
	C305.756226,248.385620 279.440521,227.716904 263.180298,193.866669 
	C263.377747,208.411957 261.058228,221.919724 251.689651,234.173813 
z"/>
<path fill="#000000" opacity="1.000000" stroke="none" 
	d="
M228.531342,0.999995 
	C228.145233,1.661479 227.343826,2.812986 226.427902,2.912690 
	C204.340973,5.317014 183.244797,11.529509 162.724487,19.737314 
	C138.707794,29.343620 116.739120,42.570183 96.707016,58.893154 
	C71.088585,79.768082 50.392910,104.826378 34.102638,133.579422 
	C18.679420,160.802094 8.646166,189.853424 3.881499,220.758942 
	C3.395803,223.909348 2.524917,227.000351 1.416389,230.059464 
	C1.000000,153.739777 1.000000,77.479561 1.000000,1.000000 
	C76.687416,1.000000 152.375046,1.000000 228.531342,0.999995 
z"/>
<path fill="#000000" opacity="1.000000" stroke="none" 
	d="
M521.000000,229.531342 
	C520.338379,229.145340 519.193970,228.347412 519.085938,227.427704 
	C516.576111,206.066956 510.909180,185.535034 503.192047,165.511139 
	C493.567139,140.537048 479.938263,117.806900 463.281982,97.043503 
	C443.809418,72.769394 420.404053,52.809017 393.600220,36.814079 
	C369.478241,22.419508 343.593292,12.626308 316.348877,6.298715 
	C309.322021,4.666713 302.056549,4.069214 294.911896,2.926404 
	C294.194946,2.811727 293.556152,2.208821 292.940552,1.416251 
	C368.927185,1.000000 444.854370,1.000000 521.000000,1.000000 
	C521.000000,77.020752 521.000000,153.041718 521.000000,229.531342 
z"/>
<path fill="#000000" opacity="1.000000" stroke="none" 
	d="
M1.000000,295.468658 
	C1.661626,295.854675 2.805995,296.652649 2.914071,297.572388 
	C5.424196,318.933411 11.091398,339.465515 18.808334,359.489929 
	C28.432367,384.463043 42.060429,407.191925 58.715935,427.954132 
	C78.188911,452.228516 101.594292,472.189728 128.398499,488.185242 
	C152.520782,502.580353 178.406021,512.373840 205.650772,518.701721 
	C212.677658,520.333862 219.943253,520.931030 227.087967,522.073792 
	C227.805038,522.188416 228.444031,522.791199 229.059631,523.583740 
	C153.072800,524.000000 77.145615,524.000000 1.000000,524.000000 
	C1.000000,447.979248 1.000000,371.958282 1.000000,295.468658 
z"/>
<path fill="#000000" opacity="1.000000" stroke="none" 
	d="
M293.468658,524.000000 
	C293.854675,523.338562 294.656006,522.187195 295.571869,522.087524 
	C317.659058,519.683411 338.755554,513.471313 359.275818,505.262756 
	C383.292542,495.655548 405.262299,482.429901 425.294403,466.105804 
	C450.911041,445.230865 471.517914,420.123230 487.923218,391.437744 
	C502.886139,365.274323 512.138306,337.143646 517.890442,307.725525 
	C518.724670,303.458771 519.411865,299.163269 520.583618,294.940552 
	C521.000000,371.260223 521.000000,447.520416 521.000000,524.000000 
	C445.312592,524.000000 369.624939,524.000000 293.468658,524.000000 
z"/>
<path fill="#2AB9BF" opacity="1.000000" stroke="none" 
	d="
M274.843262,330.279175 
	C288.011169,360.320068 289.032257,389.589478 271.198730,417.849823 
	C260.904755,434.162415 245.891052,444.471130 227.540482,450.026215 
	C199.719925,458.448059 174.470947,451.556976 150.447113,437.114899 
	C147.228638,435.180115 146.780411,433.419983 149.136261,430.474915 
	C160.885925,415.786499 172.582703,401.055054 184.184006,386.249359 
	C186.164841,383.721436 188.194870,383.534088 191.107025,384.240448 
	C202.350540,386.967682 212.303528,383.694824 217.915161,375.723145 
	C225.799194,364.523376 223.013657,348.198639 211.011536,338.688690 
	C197.112289,327.675598 176.123825,329.682281 169.804703,349.647614 
	C167.659500,356.425446 169.710495,362.696930 172.379120,368.934204 
	C173.030411,370.456451 173.216660,373.110413 172.332016,374.216766 
	C159.561600,390.187378 146.571655,405.982483 133.162613,422.397125 
	C130.756241,420.056274 128.459656,418.204071 126.622299,415.973602 
	C113.635536,400.208099 105.485062,382.364441 102.858841,361.944489 
	C97.641991,321.381500 123.702217,279.950806 167.812119,272.349548 
	C197.890274,267.166351 224.451141,275.911133 247.769669,295.016052 
	C259.389252,304.535980 268.186981,316.389343 274.843262,330.279175 
z"/>
<path fill="#2AB9BF" opacity="1.000000" stroke="none" 
	d="
M433.843414,301.175171 
	C457.929993,327.803650 466.342163,368.242065 457.402008,387.153900 
	C456.402283,386.588501 455.342682,386.134827 454.448364,385.461578 
	C441.146118,375.447479 427.727325,365.577881 414.716766,355.196991 
	C412.551941,353.469727 411.500305,349.573334 411.111450,346.528931 
	C409.488190,333.820526 397.293335,322.065063 384.523346,321.414734 
	C374.601837,320.909515 366.533295,330.077271 368.163818,340.794250 
	C369.929718,352.401337 376.259308,361.091248 387.011597,366.146759 
	C392.593384,368.771149 398.430817,368.806946 403.845337,365.727020 
	C406.378265,364.286224 408.045288,364.766479 410.096008,366.328247 
	C423.343140,376.416809 436.588531,386.509430 449.959259,396.432556 
	C453.141388,398.794220 453.083282,401.016968 451.137634,404.000336 
	C442.606537,417.081421 430.342987,424.333099 415.194275,426.936462 
	C395.828766,430.264465 378.491608,424.069855 362.776520,413.791107 
	C334.599182,395.361145 317.094208,369.501740 312.565918,335.724243 
	C310.023071,316.756744 313.806000,299.225372 326.597992,284.348297 
	C334.648956,274.985077 345.024200,269.741028 357.168884,268.053986 
	C383.213379,264.436035 404.671906,274.385437 423.762817,290.970551 
	C427.274414,294.021210 430.350555,297.573090 433.843414,301.175171 
z"/>
<path fill="#2AB9BF" opacity="1.000000" stroke="none" 
	d="
M180.966187,171.729248 
	C185.017609,162.794968 182.314407,152.696106 174.317734,146.451126 
	C165.573074,139.622009 155.828079,138.045746 145.185013,141.040359 
	C143.612228,141.482895 141.420700,141.585342 140.111649,140.822296 
	C125.015282,132.022751 110.034317,123.025208 95.021172,114.082825 
	C94.304199,113.655777 93.573112,113.252434 92.495689,112.636200 
	C98.310463,105.532196 105.142799,101.327835 112.703323,98.969406 
	C152.323669,86.610237 186.406403,97.064430 215.769989,125.160400 
	C226.443604,135.373260 233.734818,147.799469 237.464401,162.189972 
	C245.721542,194.049911 229.146515,222.410431 197.248489,231.109833 
	C170.328125,238.451721 145.455292,232.634216 122.097038,218.871811 
	C103.057228,207.653778 88.424110,192.226562 80.894516,171.032089 
	C75.513657,155.885925 75.175285,140.736664 82.322403,125.850685 
	C84.136513,122.072250 85.923820,121.584473 89.589783,123.845375 
	C103.751236,132.579163 118.062912,141.074051 132.439148,149.451065 
	C135.418976,151.187439 135.795303,153.497940 136.002777,156.471039 
	C136.756912,167.276901 143.649307,173.567825 152.789902,177.567154 
	C160.946274,181.135864 169.301056,181.525360 177.003967,175.984879 
	C178.452423,174.943039 179.528900,173.384064 180.966187,171.729248 
z"/>
<path fill="#2AB9BF" opacity="1.000000" stroke="none" 
	d="
M301.276306,213.770935 
	C284.993256,200.287231 272.522400,184.610275 267.608917,163.935089 
	C264.634064,151.417542 264.708313,138.969070 271.699921,127.685341 
	C281.239380,112.289658 295.724335,107.171852 313.376526,107.718491 
	C334.020935,108.357803 351.244751,116.714256 367.151581,128.900375 
	C368.069733,129.603775 369.158539,130.084427 370.921173,131.104828 
	C361.595093,138.566605 353.505188,145.160904 345.223633,151.504974 
	C344.234985,152.262360 342.143738,151.936813 340.665894,151.626266 
	C337.425995,150.945450 334.294922,149.466980 331.042542,149.177460 
	C321.207611,148.302032 314.891693,155.882095 317.152191,165.450790 
	C319.437164,175.123138 329.735596,184.475830 339.621735,185.856934 
	C351.750916,187.551376 359.205505,178.151199 354.557892,166.713455 
	C353.218353,163.416946 353.398773,161.303146 356.263916,159.014893 
	C362.762756,153.824585 369.057404,148.377075 375.392944,142.984665 
	C377.176300,141.466766 378.914856,140.127289 380.899933,142.509109 
	C394.593109,158.939484 403.468842,177.217880 400.532013,199.229721 
	C398.180389,216.855209 385.342834,229.416367 367.802277,233.217484 
	C346.637238,237.804062 328.209320,230.820282 310.554108,220.275757 
	C307.420593,218.404266 304.540283,216.108887 301.276306,213.770935 
z"/>
<path fill="#2AB9BF" opacity="1.000000" stroke="none" 
	d="
M251.884003,233.874054 
	C261.058228,221.919724 263.377747,208.411957 263.180298,193.866669 
	C279.440521,227.716904 305.756226,248.385620 342.410767,255.564255 
	C305.878387,263.662140 294.477905,289.324890 295.576385,324.004456 
	C278.961609,286.613678 250.993668,264.022095 210.458847,257.004425 
	C226.761032,253.795639 241.148682,247.409531 251.884003,233.874054 
z"/>
</svg>