<?xml version="1.0" standalone="no"?>
<!DOCTYPE svg PUBLIC "-//W3C//DTD SVG 20010904//EN"
 "http://www.w3.org/TR/2001/REC-SVG-20010904/DTD/svg10.dtd">
<svg version="1.0" xmlns="http://www.w3.org/2000/svg"
 width="520.000000pt" height="523.000000pt" viewBox="0 0 520.000000 523.000000"
 preserveAspectRatio="xMidYMid meet">

<g transform="translate(0.000000,523.000000) scale(0.100000,-0.100000)"
fill="#000000" stroke="none">
<path d="M2355 5219 c-209 -21 -460 -78 -640 -144 -143 -52 -402 -182 -525
-263 -150 -98 -298 -219 -425 -346 -793 -799 -990 -2002 -493 -3014 122 -248
292 -486 493 -688 207 -208 424 -363 690 -494 247 -121 466 -193 715 -234 371
-61 715 -45 1085 49 176 45 300 92 490 185 266 131 483 286 690 494 793 799
990 2002 493 3014 -75 153 -204 355 -315 492 -154 192 -385 399 -603 542 -123
81 -382 211 -525 263 -339 125 -777 180 -1130 144z m-703 -948 c295 -78 544
-273 659 -516 123 -262 90 -508 -92 -680 -249 -235 -698 -232 -1054 8 -153
103 -262 226 -330 372 -66 139 -87 260 -66 379 13 75 58 186 75 186 6 -1 121
-67 256 -148 l245 -148 2 -44 c7 -122 121 -227 259 -238 174 -14 266 114 187
260 -61 112 -212 173 -332 134 l-50 -16 -246 146 c-135 81 -245 150 -245 154
0 12 67 62 132 99 31 18 99 43 150 57 83 22 108 24 233 20 97 -3 163 -10 217
-25z m1631 -131 c43 -11 106 -31 140 -46 59 -26 250 -145 261 -163 3 -5 -53
-56 -125 -113 l-131 -105 -49 18 c-88 34 -178 17 -208 -40 -47 -87 22 -226
141 -285 88 -44 184 -29 221 33 21 35 22 107 2 141 -8 14 -14 28 -15 32 0 9
247 218 258 218 25 0 127 -157 169 -260 152 -366 -33 -670 -407 -670 -487 0
-982 541 -875 955 64 246 311 360 618 285z m-557 -1016 c139 -210 401 -384
640 -428 44 -7 65 -14 47 -15 -17 -1 -63 -12 -101 -25 -156 -52 -270 -169
-330 -338 -21 -60 -26 -96 -30 -201 l-4 -127 -49 97 c-147 298 -428 512 -742
568 -76 13 -75 16 16 35 96 19 213 84 287 159 108 109 159 234 160 391 l0 75
26 -55 c14 -30 50 -91 80 -136z m1115 -582 c197 -52 391 -187 536 -375 85
-109 165 -282 200 -429 20 -86 23 -271 4 -336 l-12 -42 -228 172 -229 173 -5
47 c-9 73 -44 143 -98 193 -86 81 -175 105 -249 67 -101 -50 -117 -196 -35
-319 73 -110 207 -162 298 -115 l37 20 230 -175 c127 -95 230 -177 230 -182 0
-4 -13 -27 -29 -52 -58 -90 -153 -160 -268 -196 -77 -23 -94 -25 -201 -20
-179 8 -314 59 -478 183 -254 191 -413 483 -430 789 -17 300 149 548 406 605
105 23 211 20 321 -8z m-1789 -41 c451 -117 777 -524 780 -976 1 -152 -24
-261 -90 -390 -74 -148 -195 -266 -347 -340 -138 -67 -195 -79 -370 -79 -161
-1 -231 13 -368 70 -71 30 -197 102 -197 112 0 7 23 36 270 348 l128 161 48
-12 c124 -31 245 25 292 135 8 19 14 62 15 95 0 74 -25 136 -81 197 -143 155
-381 118 -443 -69 -16 -49 -6 -140 21 -192 19 -38 20 -45 7 -59 -8 -10 -97
-118 -197 -242 -101 -124 -187 -229 -191 -234 -21 -23 -149 145 -214 278 -63
131 -86 225 -92 383 -5 113 -2 146 16 226 74 319 329 557 651 606 93 14 271 5
362 -18z"/>
</g>
</svg>
